# xmcd
#
# Track frame offsets:
#   150
#   8830
#   24234
#   38280
#   53080
#   67108
#   75182
#   88519
#   101977
#   114270
#   127287
#   151609
#   168441
#   187455
#   205937
#   221472
#
# Disc length: 3181 seconds
#
# Revision: 0
# Processed by: cddbd v1.5.2PL0 Copyright (c) Steve Scherf et al.
# Submitted via: uFREEDB ActiveX Control 1.5
#
DISCID=cb0c6b10
DTITLE=THE BLUES BROTHERS - COMPLETE
DYEAR=1900
DGENRE=Blues
TTITLE0=OPENING: I CAN'T TURN LOOSE
TTITLE1=EVERYBODY NEEDS SOMEBODY TO LOVE
TTITLE2=GIMME SOME LOVIN'
TTITLE3=THINK
TTITLE4=SOUL MAN
TTITLE5=SOUL FINGER
TTITLE6=MESSIN' WITH THE KID
TTITLE7=HEY BARTENDER
TTITLE8=(IGOT EVERY THING I NEED) ALMOST
TTITLE9=RUBBER BISCUIT
TTITLE10=SHOT GUN BLUES
TTITLE11=GROOVE ME
TTITLE12=I DON'T KNOW
TTITLE13="B" MOVIE BOX CAR BLUES
TTITLE14=FLIP FLOP AND FLY
TTITLE15=PETER GUNN THEME
EXTD=
EXTT0=
EXTT1=
EXTT2=
EXTT3=
EXTT4=
EXTT5=
EXTT6=
EXTT7=
EXTT8=
EXTT9=
EXTT10=
EXTT11=
EXTT12=
EXTT13=
EXTT14=
EXTT15=
PLAYORDER=
